<svg xmlns="http://www.w3.org/2000/svg" version="1.1" xmlns:xlink="http://www.w3.org/1999/xlink" width="110" height="18"><svg width="110" height="18" viewBox="0 0 110 18" fill="none" xmlns="http://www.w3.org/2000/svg">
<path d="M1.12802 11.208C1.43202 11.448 1.95202 11.776 2.68802 12.192C3.44002 12.608 4.15202 12.816 4.82402 12.816C5.51202 12.816 5.85602 12.552 5.85602 12.024C5.85602 11.784 5.76002 11.576 5.56802 11.4C5.37602 11.208 5.02402 10.992 4.51202 10.752C4.00002 10.512 3.61602 10.328 3.36002 10.2C3.10402 10.056 2.76002 9.83196 2.32802 9.52796C1.91202 9.20796 1.59202 8.87996 1.36802 8.54396C0.728016 7.63196 0.408016 6.47196 0.408016 5.06396C0.408016 3.65596 0.928016 2.47196 1.96802 1.51196C3.02402 0.535964 4.40002 0.0479636 6.09602 0.0479636C7.24802 0.0479636 8.31202 0.175964 9.28802 0.431964C10.264 0.671964 10.768 0.991964 10.8 1.39196C10.8 1.43996 10.8 1.48796 10.8 1.53596C10.8 2.09596 10.624 2.80796 10.272 3.67196C9.92002 4.51996 9.67202 4.99196 9.52802 5.08796C8.50402 4.55996 7.58402 4.29596 6.76802 4.29596C5.96802 4.29596 5.56802 4.58396 5.56802 5.15996C5.56802 5.51196 5.86402 5.82396 6.45602 6.09596C6.58402 6.15996 6.76802 6.24796 7.00802 6.35996C7.24802 6.47196 7.52002 6.60796 7.82402 6.76796C8.14402 6.91196 8.48002 7.10396 8.83202 7.34396C9.20002 7.56796 9.59202 7.87196 10.008 8.25596C10.856 9.05596 11.28 10.112 11.28 11.424C11.28 13.136 10.808 14.536 9.86402 15.624C8.92002 16.712 7.46402 17.272 5.49602 17.304C4.53602 17.304 3.66402 17.224 2.88002 17.064C2.11202 16.904 1.44002 16.592 0.864016 16.128C0.288016 15.664 1.6138e-05 15.104 1.6138e-05 14.448C1.6138e-05 13.792 0.120016 13.144 0.360016 12.504C0.600016 11.848 0.856016 11.416 1.12802 11.208ZM14.646 8.35196C14.198 7.55196 13.974 6.90396 13.974 6.40796C13.974 5.89596 14.11 5.56796 14.382 5.42396C15.294 5.02396 16.542 4.82396 18.126 4.82396C19.726 4.82396 20.854 5.19996 21.51 5.95196C22.166 6.68796 22.494 7.78396 22.494 9.23996V13.032H23.31C23.582 13.032 23.79 13.192 23.934 13.512C24.094 13.832 24.174 14.272 24.174 14.832C24.174 15.392 24.03 15.944 23.742 16.488C23.47 17.032 23.094 17.304 22.614 17.304C21.75 17.304 21.054 17.072 20.526 16.608C20.286 16.416 20.102 16.184 19.974 15.912C19.238 16.84 18.094 17.304 16.542 17.304C15.374 17.304 14.39 16.888 13.59 16.056C12.79 15.224 12.39 14.24 12.39 13.104C12.39 10.496 13.95 9.19196 17.07 9.19196H18.39V8.95196C18.39 8.53596 18.318 8.27196 18.174 8.15996C18.046 8.03196 17.734 7.96796 17.238 7.96796C16.63 7.96796 15.766 8.09596 14.646 8.35196ZM16.566 12.768C16.566 13.12 16.662 13.392 16.854 13.584C17.046 13.76 17.286 13.848 17.574 13.848C17.878 13.848 18.15 13.728 18.39 13.488V11.64H17.718C16.95 11.64 16.566 12.016 16.566 12.768ZM24.5965 5.13596C24.5485 5.00796 25.2925 4.94396 26.8285 4.94396C28.3805 4.94396 29.1565 4.98396 29.1565 5.06396L30.8845 13.224L32.1805 5.18396C32.2285 5.03996 33.0205 4.96796 34.5565 4.96796C36.1085 4.96796 36.8605 5.03196 36.8125 5.15996L33.4285 16.896C33.3165 17.056 32.3645 17.136 30.5725 17.136C28.7805 17.136 27.8205 17.016 27.6925 16.776L24.5965 5.13596ZM39.0801 15.648C38.0881 14.544 37.5921 13.016 37.5921 11.064C37.5921 9.11196 38.0881 7.58396 39.0801 6.47996C40.0881 5.37596 41.4401 4.82396 43.1361 4.82396C44.8321 4.82396 46.1761 5.37596 47.1681 6.47996C48.1601 7.58396 48.6561 9.11196 48.6561 11.064C48.6561 13.016 48.1601 14.544 47.1681 15.648C46.1761 16.752 44.8321 17.304 43.1361 17.304C41.4401 17.304 40.0881 16.752 39.0801 15.648ZM43.1361 8.83196C42.2401 8.83196 41.7921 9.56796 41.7921 11.04C41.7921 12.512 42.2401 13.248 43.1361 13.248C44.0481 13.248 44.5041 12.512 44.5041 11.04C44.5041 9.56796 44.0481 8.83196 43.1361 8.83196ZM50.2328 5.20796C50.2328 5.03196 50.9208 4.94396 52.2968 4.94396C53.6728 4.94396 54.3608 5.03196 54.3608 5.20796V12.216C54.3608 13.016 54.6168 13.416 55.1288 13.416C55.5128 13.416 55.9448 13.248 56.4248 12.912V5.20796C56.4248 5.04796 57.1048 4.96796 58.4648 4.96796C59.8248 4.96796 60.5048 5.04796 60.5048 5.20796V13.08H61.1288C61.6728 13.08 61.9448 13.6 61.9448 14.64C61.9448 15.168 61.8328 15.704 61.6088 16.248C61.2888 16.952 60.8568 17.304 60.3128 17.304C59.2408 17.304 58.4488 16.864 57.9368 15.984L57.9128 16.008C56.9368 16.872 55.8888 17.304 54.7688 17.304C53.2168 17.304 52.0728 16.92 51.3368 16.152C50.6008 15.368 50.2328 14.08 50.2328 12.288V5.20796ZM72.5035 0.263964C72.7755 0.263964 72.9115 0.975964 72.9115 2.39996C72.9115 3.80796 72.7755 4.51196 72.5035 4.51196H68.1115V7.24796H71.0395C71.3115 7.24796 71.4475 7.87196 71.4475 9.11996C71.4475 10.352 71.3195 10.968 71.0635 10.968H68.1115V16.752C68.1115 16.976 67.8075 17.12 67.1995 17.184C66.6075 17.264 66.1115 17.304 65.7115 17.304L64.5835 17.256C63.7995 17.16 63.4075 17 63.4075 16.776V0.887964C63.4075 0.631964 63.4555 0.463964 63.5515 0.383964C63.6635 0.303964 63.8235 0.263964 64.0315 0.263964H72.5035ZM82.956 16.416C81.948 17.008 80.652 17.304 79.068 17.304C77.484 17.304 76.148 16.768 75.06 15.696C73.972 14.608 73.428 13.112 73.428 11.208C73.428 9.28796 73.948 7.74396 74.988 6.57596C76.044 5.40796 77.372 4.82396 78.972 4.82396C80.572 4.82396 81.804 5.23196 82.668 6.04796C83.548 6.86396 83.988 7.85596 83.988 9.02396C83.988 11.616 82.5 12.912 79.524 12.912H77.868C77.868 13.392 77.996 13.728 78.252 13.92C78.524 14.096 78.916 14.184 79.428 14.184C80.548 14.184 81.612 13.928 82.62 13.416C82.636 13.4 82.708 13.512 82.836 13.752C83.22 14.44 83.412 15.024 83.412 15.504C83.412 15.968 83.26 16.272 82.956 16.416ZM79.956 9.47996C79.956 8.80796 79.628 8.47196 78.972 8.47196C78.668 8.47196 78.404 8.56796 78.18 8.75996C77.972 8.93596 77.868 9.19996 77.868 9.55196V10.296H79.164C79.692 10.296 79.956 10.024 79.956 9.47996ZM86.0599 12.744C87.3559 13.528 88.3799 13.92 89.1319 13.92C89.6119 13.92 89.8519 13.752 89.8519 13.416C89.8519 13.176 89.4359 12.864 88.6039 12.48C86.6039 11.664 85.6039 10.328 85.6039 8.47196C85.6039 7.28796 86.0359 6.38396 86.8999 5.75996C87.7639 5.13596 88.7959 4.82396 89.9959 4.82396C91.2119 4.82396 92.2359 4.95196 93.0679 5.20796C93.9159 5.46396 94.3399 5.79996 94.3399 6.21596C94.3399 6.56796 94.1639 7.03196 93.8119 7.60796C93.4759 8.18396 93.2439 8.49596 93.1159 8.54396C92.4279 8.15996 91.6839 7.96796 90.8839 7.96796C90.4519 7.96796 90.2359 8.11996 90.2359 8.42396C90.2359 8.61596 90.3159 8.78396 90.4759 8.92796C90.6519 9.05596 90.9639 9.22396 91.4119 9.43196C91.8599 9.62396 92.2279 9.79996 92.5159 9.95996C92.8199 10.12 93.1559 10.344 93.5239 10.632C94.2919 11.24 94.6759 12.032 94.6759 13.008C94.6759 14.288 94.2519 15.328 93.4039 16.128C92.5559 16.912 91.2759 17.304 89.5639 17.304C88.4279 17.304 87.3959 17.112 86.4679 16.728C85.5399 16.344 85.0759 15.816 85.0759 15.144C85.0759 14.696 85.1799 14.224 85.3879 13.728C85.6119 13.232 85.8359 12.904 86.0599 12.744ZM101.881 16.92C101.881 17.112 101.209 17.208 99.8646 17.208C98.2646 17.144 97.4646 17.04 97.4646 16.896V8.39996H96.2406C95.9206 8.39996 95.7606 7.84796 95.7606 6.74396C95.7606 6.45596 95.7846 6.10396 95.8326 5.68796C95.8966 5.27196 96.0166 5.06396 96.1926 5.06396H97.4646V2.95196C97.4646 2.63196 98.1366 2.47196 99.4806 2.47196C100.841 2.47196 101.521 2.59996 101.521 2.85596V4.39196L101.545 5.06396H103.585C103.857 5.06396 103.993 5.62396 103.993 6.74396C103.993 7.86396 103.857 8.42396 103.585 8.42396H101.881V16.92ZM107.813 6.40796C107.589 6.47196 107.365 6.50396 107.141 6.50396C106.917 6.50396 106.693 6.47196 106.469 6.40796C106.021 6.27996 105.797 6.07196 105.797 5.78396V0.719964C105.797 0.431963 106.141 0.223964 106.829 0.0959644C107.165 0.0319643 107.509 -3.57628e-05 107.861 -3.57628e-05C108.213 -3.57628e-05 108.565 0.0319643 108.917 0.0959644C109.605 0.223964 109.949 0.431963 109.949 0.719964L108.509 5.78396C108.509 6.07196 108.277 6.27996 107.813 6.40796Z" fill="#FFDDF2"></path>
</svg><style>@media (prefers-color-scheme: light) { :root { filter: none; } }
@media (prefers-color-scheme: dark) { :root { filter: none; } }
</style></svg>