<svg width="27" height="24" viewBox="0 0 27 24" fill="none" xmlns="http://www.w3.org/2000/svg">
<path d="M26.4358 3.75519C26.1253 2.27706 25.2104 1.11294 24.0488 0.717875C21.9431 0 13.5 0 13.5 0C13.5 0 5.0569 0 2.95127 0.717875C1.78962 1.113 0.874714 2.27706 0.564191 3.75519C0 6.43437 0 12.0243 0 12.0243C0 12.0243 0 17.6142 0.564191 20.2934C0.874714 21.7715 1.78962 22.887 2.95127 23.2821C5.0569 24 13.5 24 13.5 24C13.5 24 21.9431 24 24.0488 23.2821C25.2104 22.887 26.1253 21.7715 26.4358 20.2934C27 17.6142 27 12.0243 27 12.0243C27 12.0243 27 6.43437 26.4358 3.75519ZM10.7386 17.0994V6.94906L17.7955 12.0244L10.7386 17.0994Z" fill="white" fill-opacity="0.6"/>
</svg>
