<svg width="27" height="24" viewBox="0 0 27 24" fill="none" xmlns="http://www.w3.org/2000/svg">
<g clip-path="url(#clip0_154_308)">
<path d="M24.2247 5.88832C24.2418 6.14673 24.2418 6.4052 24.2418 6.6636C24.2418 14.5455 18.674 23.6272 8.49749 23.6272C5.36232 23.6272 2.44989 22.6488 0 20.9507C0.445449 21.006 0.873707 21.0245 1.33629 21.0245C3.92319 21.0245 6.30458 20.0832 8.20625 18.4772C5.77349 18.4219 3.73478 16.7052 3.03234 14.3424C3.37501 14.3977 3.71763 14.4347 4.07743 14.4347C4.57425 14.4347 5.07111 14.3608 5.53365 14.2317C2.99812 13.6779 1.09641 11.2783 1.09641 8.38027V8.30645C1.83306 8.74947 2.68973 9.02635 3.59766 9.06321C2.10717 7.99259 1.13068 6.1652 1.13068 4.0978C1.13068 2.99029 1.40474 1.97507 1.88447 1.08904C4.60848 4.70695 8.70305 7.06963 13.2944 7.32809C13.2088 6.88508 13.1573 6.42367 13.1573 5.96219C13.1573 2.67649 15.6244 0 18.691 0C20.2843 0 21.7234 0.719889 22.7341 1.88279C23.9848 1.62439 25.184 1.12597 26.2462 0.443013C25.835 1.82745 24.9612 2.99035 23.8135 3.72865C24.9271 3.59951 26.0064 3.26717 27 2.80575C26.2463 3.98707 25.304 5.03917 24.2247 5.88832Z" fill="white" fill-opacity="0.59"/>
</g>
<defs>
<clipPath id="clip0_154_308">
<rect width="27" height="24" fill="white"/>
</clipPath>
</defs>
</svg>
