<svg width="27" height="24" viewBox="0 0 27 24" fill="none" xmlns="http://www.w3.org/2000/svg">
<g clip-path="url(#clip0_154_302)">
<path d="M27 12C27 5.37097 20.9577 0 13.5 0C6.04234 0 0 5.37097 0 12C0 17.9893 4.93675 22.9538 11.3906 23.8548V15.4688H7.96119V12H11.3906V9.35612C11.3906 6.34888 13.4047 4.68774 16.4896 4.68774C17.967 4.68774 19.5118 4.92193 19.5118 4.92193V7.87355H17.8091C16.1325 7.87355 15.6094 8.79871 15.6094 9.74758V12H19.3535L18.7546 15.4688H15.6094V23.8548C22.0632 22.9538 27 17.9893 27 12Z" fill="white" fill-opacity="0.59"/>
</g>
<defs>
<clipPath id="clip0_154_302">
<rect width="27" height="24" fill="white"/>
</clipPath>
</defs>
</svg>
