<svg width="27" height="24" viewBox="0 0 27 24" fill="none" xmlns="http://www.w3.org/2000/svg">
<g clip-path="url(#clip0_154_305)">
<path d="M13.503 5.8467C9.67211 5.8467 6.5821 8.59399 6.5821 12C6.5821 15.406 9.67211 18.1532 13.503 18.1532C17.3339 18.1532 20.4239 15.406 20.4239 12C20.4239 8.59399 17.3339 5.8467 13.503 5.8467ZM13.503 16.0004C11.0274 16.0004 9.00351 14.2064 9.00351 12C9.00351 9.7936 11.0214 7.99956 13.503 7.99956C15.9847 7.99956 18.0025 9.7936 18.0025 12C18.0025 14.2064 15.9786 16.0004 13.503 16.0004ZM22.3213 5.595C22.3213 6.39295 21.5985 7.03024 20.707 7.03024C19.8095 7.03024 19.0928 6.38759 19.0928 5.595C19.0928 4.80241 19.8156 4.15976 20.707 4.15976C21.5985 4.15976 22.3213 4.80241 22.3213 5.595ZM26.9051 7.05166C26.8028 5.12909 26.3088 3.42608 24.7247 2.02298C23.1466 0.619881 21.231 0.180743 19.0686 0.0843468C16.84 -0.0281156 10.16 -0.0281156 7.93134 0.0843468C5.77496 0.175387 3.85951 0.614526 2.27534 2.01763C0.691188 3.42073 0.203291 5.12374 0.0948689 7.0463C-0.031623 9.02778 -0.031623 14.9669 0.0948689 16.9483C0.197267 18.871 0.691188 20.5739 2.27534 21.977C3.85951 23.3801 5.76893 23.8193 7.93134 23.9156C10.16 24.0281 16.84 24.0281 19.0686 23.9156C21.231 23.8246 23.1466 23.3855 24.7247 21.977C26.3027 20.5739 26.7967 18.871 26.9051 16.9483C27.0316 14.9669 27.0316 9.03313 26.9051 7.05166ZM24.0259 19.0744C23.5561 20.1241 22.6465 20.9327 21.46 21.3558C19.683 21.9823 15.4667 21.8377 13.503 21.8377C11.5394 21.8377 7.31696 21.977 5.54607 21.3558C4.36548 20.9381 3.45595 20.1294 2.98008 19.0744C2.27534 17.4946 2.43798 13.7459 2.43798 12C2.43798 10.2542 2.28138 6.50005 2.98008 4.92558C3.44991 3.87594 4.35945 3.06727 5.54607 2.6442C7.32298 2.01763 11.5394 2.16222 13.503 2.16222C15.4667 2.16222 19.6891 2.02298 21.46 2.6442C22.6406 3.06192 23.5501 3.87058 24.0259 4.92558C24.7306 6.50542 24.568 10.2542 24.568 12C24.568 13.7459 24.7306 17.5 24.0259 19.0744Z" fill="white" fill-opacity="0.59"/>
</g>
<defs>
<clipPath id="clip0_154_305">
<rect width="27" height="24" fill="white"/>
</clipPath>
</defs>
</svg>
